<svg width="1855" height="669" viewBox="0 0 1855 669" fill="none" xmlns="http://www.w3.org/2000/svg">
<path d="M113.588 212.134C113.898 211.955 114.279 211.955 114.588 212.134L219.676 272.807C219.986 272.985 220.176 273.315 220.176 273.673V395.018C220.176 395.375 219.986 395.705 219.676 395.884L114.588 456.557C114.279 456.735 113.898 456.735 113.588 456.557L8.5 395.884C8.1906 395.705 8 395.375 8 395.018V273.673C8 273.315 8.1906 272.985 8.5 272.807L113.588 212.134Z" stroke="black" stroke-width="15"/>
<path d="M927.588 8.13397C927.898 7.95534 928.279 7.95534 928.588 8.13398L1033.68 68.8066C1033.99 68.9853 1034.18 69.3154 1034.18 69.6726V191.018C1034.18 191.375 1033.99 191.705 1033.68 191.884L928.588 252.557C928.279 252.735 927.898 252.735 927.588 252.557L822.5 191.884C822.191 191.705 822 191.375 822 191.018V69.6726C822 69.3154 822.191 68.9853 822.5 68.8066L927.588 8.13397Z" stroke="black" stroke-width="15"/>
<path d="M1043.59 212.134C1043.9 211.955 1044.28 211.955 1044.59 212.134L1149.68 272.807C1149.99 272.985 1150.18 273.315 1150.18 273.673V395.018C1150.18 395.375 1149.99 395.705 1149.68 395.884L1044.59 456.557C1044.28 456.735 1043.9 456.735 1043.59 456.557L938.5 395.884C938.191 395.705 938 395.375 938 395.018V273.673C938 273.315 938.191 272.985 938.5 272.807L1043.59 212.134Z" stroke="black" stroke-width="15"/>
<path d="M927.588 416.134C927.898 415.955 928.279 415.955 928.588 416.134L1033.68 476.807C1033.99 476.985 1034.18 477.315 1034.18 477.673V599.018C1034.18 599.375 1033.99 599.705 1033.68 599.884L928.588 660.557C928.279 660.735 927.898 660.735 927.588 660.557L822.5 599.884C822.191 599.705 822 599.375 822 599.018V477.673C822 477.315 822.191 476.985 822.5 476.807L927.588 416.134Z" stroke="black" stroke-width="15"/>
<path d="M461.941 8.13397C462.25 7.95534 462.631 7.95534 462.941 8.13398L568.029 68.8066C568.338 68.9853 568.529 69.3154 568.529 69.6726V191.018C568.529 191.375 568.338 191.705 568.029 191.884L462.941 252.557C462.631 252.735 462.25 252.735 461.941 252.557L356.853 191.884C356.543 191.705 356.353 191.375 356.353 191.018V69.6726C356.353 69.3154 356.543 68.9853 356.853 68.8066L461.941 8.13397Z" stroke="black" stroke-width="15"/>
<path d="M577.941 212.134C578.25 211.955 578.631 211.955 578.941 212.134L684.029 272.807C684.338 272.985 684.529 273.315 684.529 273.673V395.018C684.529 395.375 684.338 395.705 684.029 395.884L578.941 456.557C578.631 456.735 578.25 456.735 577.941 456.557L472.853 395.884C472.543 395.705 472.353 395.375 472.353 395.018V273.673C472.353 273.315 472.543 272.985 472.853 272.807L577.941 212.134Z" stroke="black" stroke-width="15"/>
<path d="M461.941 416.134C462.25 415.955 462.631 415.955 462.941 416.134L568.029 476.807C568.338 476.985 568.529 477.315 568.529 477.673V599.018C568.529 599.375 568.338 599.705 568.029 599.884L462.941 660.557C462.631 660.735 462.25 660.735 461.941 660.557L356.853 599.884C356.543 599.705 356.353 599.375 356.353 599.018V477.673C356.353 477.315 356.543 476.985 356.853 476.807L461.941 416.134Z" stroke="black" stroke-width="15"/>
<path d="M1391.94 8.13397C1392.25 7.95534 1392.63 7.95534 1392.94 8.13398L1498.03 68.8066C1498.34 68.9853 1498.53 69.3154 1498.53 69.6726V191.018C1498.53 191.375 1498.34 191.705 1498.03 191.884L1392.94 252.557C1392.63 252.735 1392.25 252.735 1391.94 252.557L1286.85 191.884C1286.54 191.705 1286.35 191.375 1286.35 191.018V69.6726C1286.35 69.3154 1286.54 68.9853 1286.85 68.8066L1391.94 8.13397Z" stroke="black" stroke-width="15"/>
<path d="M1507.94 212.134C1508.25 211.955 1508.63 211.955 1508.94 212.134L1614.03 272.807C1614.34 272.985 1614.53 273.315 1614.53 273.673V395.018C1614.53 395.375 1614.34 395.705 1614.03 395.884L1508.94 456.557C1508.63 456.735 1508.25 456.735 1507.94 456.557L1402.85 395.884C1402.54 395.705 1402.35 395.375 1402.35 395.018V273.673C1402.35 273.315 1402.54 272.985 1402.85 272.807L1507.94 212.134Z" stroke="black" stroke-width="15"/>
<path d="M1391.94 416.134C1392.25 415.955 1392.63 415.955 1392.94 416.134L1498.03 476.807C1498.34 476.985 1498.53 477.315 1498.53 477.673V599.018C1498.53 599.375 1498.34 599.705 1498.03 599.884L1392.94 660.557C1392.63 660.735 1392.25 660.735 1391.94 660.557L1286.85 599.884C1286.54 599.705 1286.35 599.375 1286.35 599.018V477.673C1286.35 477.315 1286.54 476.985 1286.85 476.807L1391.94 416.134Z" stroke="black" stroke-width="15"/>
<path d="M229.764 8.13398C230.074 7.95534 230.455 7.95534 230.764 8.13397L335.852 68.8066C336.162 68.9853 336.352 69.3154 336.352 69.6726V191.018C336.352 191.375 336.162 191.705 335.852 191.884L230.764 252.557C230.455 252.735 230.074 252.735 229.764 252.557L124.676 191.884C124.367 191.705 124.176 191.375 124.176 191.018V69.6726C124.176 69.3154 124.367 68.9853 124.676 68.8066L229.764 8.13398Z" stroke="#FF9900" stroke-width="15"/>
<path d="M345.764 212.134C346.074 211.955 346.455 211.955 346.764 212.134L451.852 272.807C452.162 272.985 452.352 273.315 452.352 273.673V395.018C452.352 395.375 452.162 395.705 451.852 395.884L346.764 456.557C346.455 456.735 346.074 456.735 345.764 456.557L240.676 395.884C240.367 395.705 240.176 395.375 240.176 395.018V273.673C240.176 273.315 240.367 272.985 240.676 272.807L345.764 212.134Z" stroke="#FF9900" stroke-width="15"/>
<path d="M229.764 416.134C230.074 415.955 230.455 415.955 230.764 416.134L335.852 476.807C336.162 476.985 336.352 477.315 336.352 477.673V599.018C336.352 599.375 336.162 599.705 335.852 599.884L230.764 660.557C230.455 660.735 230.074 660.735 229.764 660.557L124.676 599.884C124.367 599.705 124.176 599.375 124.176 599.018V477.673C124.176 477.315 124.367 476.985 124.676 476.807L229.764 416.134Z" stroke="#FF9900" stroke-width="15"/>
<path d="M1159.76 8.13398C1160.07 7.95534 1160.45 7.95534 1160.76 8.13397L1265.85 68.8066C1266.16 68.9853 1266.35 69.3154 1266.35 69.6726V191.018C1266.35 191.375 1266.16 191.705 1265.85 191.884L1160.76 252.557C1160.45 252.735 1160.07 252.735 1159.76 252.557L1054.68 191.884C1054.37 191.705 1054.18 191.375 1054.18 191.018V69.6726C1054.18 69.3154 1054.37 68.9853 1054.68 68.8066L1159.76 8.13398Z" stroke="#FF9900" stroke-width="15"/>
<path d="M1275.76 212.134C1276.07 211.955 1276.45 211.955 1276.76 212.134L1381.85 272.807C1382.16 272.985 1382.35 273.315 1382.35 273.673V395.018C1382.35 395.375 1382.16 395.705 1381.85 395.884L1276.76 456.557C1276.45 456.735 1276.07 456.735 1275.76 456.557L1170.68 395.884C1170.37 395.705 1170.18 395.375 1170.18 395.018V273.673C1170.18 273.315 1170.37 272.985 1170.68 272.807L1275.76 212.134Z" stroke="#FF9900" stroke-width="15"/>
<path d="M1159.76 416.134C1160.07 415.955 1160.45 415.955 1160.76 416.134L1265.85 476.807C1266.16 476.985 1266.35 477.315 1266.35 477.673V599.018C1266.35 599.375 1266.16 599.705 1265.85 599.884L1160.76 660.557C1160.45 660.735 1160.07 660.735 1159.76 660.557L1054.68 599.884C1054.37 599.705 1054.18 599.375 1054.18 599.018V477.673C1054.18 477.315 1054.37 476.985 1054.68 476.807L1159.76 416.134Z" stroke="#FF9900" stroke-width="15"/>
<path d="M694.588 8.13398C694.897 7.95534 695.279 7.95534 695.588 8.13397L800.676 68.8066C800.986 68.9853 801.176 69.3154 801.176 69.6726V191.018C801.176 191.375 800.986 191.705 800.676 191.884L695.588 252.557C695.279 252.735 694.898 252.735 694.588 252.557L589.5 191.884C589.191 191.705 589 191.375 589 191.018V69.6726C589 69.3154 589.191 68.9853 589.5 68.8066L694.588 8.13398Z" stroke="#FF9900" stroke-width="15"/>
<path d="M810.588 212.134C810.897 211.955 811.279 211.955 811.588 212.134L916.676 272.807C916.986 272.985 917.176 273.315 917.176 273.673V395.018C917.176 395.375 916.986 395.705 916.676 395.884L811.588 456.557C811.279 456.735 810.898 456.735 810.588 456.557L705.5 395.884C705.191 395.705 705 395.375 705 395.018V273.673C705 273.315 705.191 272.985 705.5 272.807L810.588 212.134Z" stroke="#FF9900" stroke-width="15"/>
<path d="M694.588 416.134C694.897 415.955 695.279 415.955 695.588 416.134L800.676 476.807C800.986 476.985 801.176 477.315 801.176 477.673V599.018C801.176 599.375 800.986 599.705 800.676 599.884L695.588 660.557C695.279 660.735 694.898 660.735 694.588 660.557L589.5 599.884C589.191 599.705 589 599.375 589 599.018V477.673C589 477.315 589.191 476.985 589.5 476.807L694.588 416.134Z" stroke="#FF9900" stroke-width="15"/>
<path d="M1624.59 8.13398C1624.9 7.95534 1625.28 7.95534 1625.59 8.13397L1730.68 68.8066C1730.99 68.9853 1731.18 69.3154 1731.18 69.6726V191.018C1731.18 191.375 1730.99 191.705 1730.68 191.884L1625.59 252.557C1625.28 252.735 1624.9 252.735 1624.59 252.557L1519.5 191.884C1519.19 191.705 1519 191.375 1519 191.018V69.6726C1519 69.3154 1519.19 68.9853 1519.5 68.8066L1624.59 8.13398Z" stroke="#FF9900" stroke-width="15"/>
<path d="M1740.59 212.134C1740.9 211.955 1741.28 211.955 1741.59 212.134L1846.68 272.807C1846.99 272.985 1847.18 273.315 1847.18 273.673V395.018C1847.18 395.375 1846.99 395.705 1846.68 395.884L1741.59 456.557C1741.28 456.735 1740.9 456.735 1740.59 456.557L1635.5 395.884C1635.19 395.705 1635 395.375 1635 395.018V273.673C1635 273.315 1635.19 272.985 1635.5 272.807L1740.59 212.134Z" stroke="#FF9900" stroke-width="15"/>
<path d="M1624.59 416.134C1624.9 415.955 1625.28 415.955 1625.59 416.134L1730.68 476.807C1730.99 476.985 1731.18 477.315 1731.18 477.673V599.018C1731.18 599.375 1730.99 599.705 1730.68 599.884L1625.59 660.557C1625.28 660.735 1624.9 660.735 1624.59 660.557L1519.5 599.884C1519.19 599.705 1519 599.375 1519 599.018V477.673C1519 477.315 1519.19 476.985 1519.5 476.807L1624.59 416.134Z" stroke="#FF9900" stroke-width="15"/>
</svg>
