<?xml version="1.0" encoding="utf-8"?>
<!-- Generator: Adobe Illustrator 23.0.1, SVG Export Plug-In . SVG Version: 6.00 Build 0)  -->
<svg version="1.1" id="Layer_1" xmlns="http://www.w3.org/2000/svg" xmlns:xlink="http://www.w3.org/1999/xlink" x="0px" y="0px"
	 viewBox="0 0 1920 1080" style="enable-background:new 0 0 1920 1080;" xml:space="preserve">
<style type="text/css">
	.st0{opacity:0.3;}
	.st1{fill:none;stroke:#000000;stroke-width:15;}
	.st2{fill:none;stroke:#FF9900;stroke-width:15;}
</style>
<g class="st0">
	<path class="st1" d="M146,213.3c0.3-0.2,0.7-0.2,1,0L252.1,274c0.3,0.2,0.5,0.5,0.5,0.9v121.3c0,0.4-0.2,0.7-0.5,0.9L147,457.7
		c-0.3,0.2-0.7,0.2-1,0L40.9,397c-0.3-0.2-0.5-0.5-0.5-0.9V274.8c0-0.4,0.2-0.7,0.5-0.9L146,213.3z"/>
	<path class="st1" d="M960,9.3c0.3-0.2,0.7-0.2,1,0L1066.1,70c0.3,0.2,0.5,0.5,0.5,0.9v121.3c0,0.4-0.2,0.7-0.5,0.9L961,253.7
		c-0.3,0.2-0.7,0.2-1,0L854.9,193c-0.3-0.2-0.5-0.5-0.5-0.9V70.8c0-0.4,0.2-0.7,0.5-0.9L960,9.3z"/>
	<path class="st1" d="M1076,213.3c0.3-0.2,0.7-0.2,1,0l105.1,60.7c0.3,0.2,0.5,0.5,0.5,0.9v121.3c0,0.4-0.2,0.7-0.5,0.9L1077,457.7
		c-0.3,0.2-0.7,0.2-1,0L970.9,397c-0.3-0.2-0.5-0.5-0.5-0.9V274.8c0-0.4,0.2-0.7,0.5-0.9L1076,213.3z"/>
	<path class="st1" d="M960,417.3c0.3-0.2,0.7-0.2,1,0l105.1,60.7c0.3,0.2,0.5,0.5,0.5,0.9v121.3c0,0.4-0.2,0.7-0.5,0.9L961,661.7
		c-0.3,0.2-0.7,0.2-1,0L854.9,601c-0.3-0.2-0.5-0.5-0.5-0.9V478.8c0-0.4,0.2-0.7,0.5-0.9L960,417.3z"/>
	<path class="st1" d="M494.4,9.3c0.3-0.2,0.7-0.2,1,0L600.4,70c0.3,0.2,0.5,0.5,0.5,0.9v121.3c0,0.4-0.2,0.7-0.5,0.9l-105.1,60.7
		c-0.3,0.2-0.7,0.2-1,0L389.3,193c-0.3-0.2-0.5-0.5-0.5-0.9V70.8c0-0.4,0.2-0.7,0.5-0.9L494.4,9.3z"/>
	<path class="st1" d="M610.4,213.3c0.3-0.2,0.7-0.2,1,0L716.4,274c0.3,0.2,0.5,0.5,0.5,0.9v121.3c0,0.4-0.2,0.7-0.5,0.9l-105.1,60.7
		c-0.3,0.2-0.7,0.2-1,0L505.3,397c-0.3-0.2-0.5-0.5-0.5-0.9V274.8c0-0.4,0.2-0.7,0.5-0.9L610.4,213.3z"/>
	<path class="st1" d="M494.4,417.3c0.3-0.2,0.7-0.2,1,0L600.4,478c0.3,0.2,0.5,0.5,0.5,0.9v121.3c0,0.4-0.2,0.7-0.5,0.9l-105.1,60.7
		c-0.3,0.2-0.7,0.2-1,0L389.3,601c-0.3-0.2-0.5-0.5-0.5-0.9V478.8c0-0.4,0.2-0.7,0.5-0.9L494.4,417.3z"/>
	<path class="st1" d="M1424.3,9.3c0.3-0.2,0.7-0.2,1,0L1530.4,70c0.3,0.2,0.5,0.5,0.5,0.9v121.3c0,0.4-0.2,0.7-0.5,0.9l-105.1,60.7
		c-0.3,0.2-0.7,0.2-1,0L1319.3,193c-0.3-0.2-0.5-0.5-0.5-0.9V70.8c0-0.4,0.2-0.7,0.5-0.9L1424.3,9.3z"/>
	<path class="st1" d="M1540.3,213.3c0.3-0.2,0.7-0.2,1,0l105.1,60.7c0.3,0.2,0.5,0.5,0.5,0.9v121.3c0,0.4-0.2,0.7-0.5,0.9
		l-105.1,60.7c-0.3,0.2-0.7,0.2-1,0L1435.3,397c-0.3-0.2-0.5-0.5-0.5-0.9V274.8c0-0.4,0.2-0.7,0.5-0.9L1540.3,213.3z"/>
	<path class="st1" d="M1424.3,417.3c0.3-0.2,0.7-0.2,1,0l105.1,60.7c0.3,0.2,0.5,0.5,0.5,0.9v121.3c0,0.4-0.2,0.7-0.5,0.9
		l-105.1,60.7c-0.3,0.2-0.7,0.2-1,0L1319.3,601c-0.3-0.2-0.5-0.5-0.5-0.9V478.8c0-0.4,0.2-0.7,0.5-0.9L1424.3,417.3z"/>
	<path class="st2" d="M262.2,9.3c0.3-0.2,0.7-0.2,1,0L368.3,70c0.3,0.2,0.5,0.5,0.5,0.9v121.3c0,0.4-0.2,0.7-0.5,0.9l-105.1,60.7
		c-0.3,0.2-0.7,0.2-1,0L157.1,193c-0.3-0.2-0.5-0.5-0.5-0.9V70.8c0-0.4,0.2-0.7,0.5-0.9L262.2,9.3z"/>
	<path class="st2" d="M378.2,213.3c0.3-0.2,0.7-0.2,1,0L484.3,274c0.3,0.2,0.5,0.5,0.5,0.9v121.3c0,0.4-0.2,0.7-0.5,0.9l-105.1,60.7
		c-0.3,0.2-0.7,0.2-1,0L273.1,397c-0.3-0.2-0.5-0.5-0.5-0.9V274.8c0-0.4,0.2-0.7,0.5-0.9L378.2,213.3z"/>
	<path class="st2" d="M262.2,417.3c0.3-0.2,0.7-0.2,1,0L368.3,478c0.3,0.2,0.5,0.5,0.5,0.9v121.3c0,0.4-0.2,0.7-0.5,0.9l-105.1,60.7
		c-0.3,0.2-0.7,0.2-1,0L157.1,601c-0.3-0.2-0.5-0.5-0.5-0.9V478.8c0-0.4,0.2-0.7,0.5-0.9L262.2,417.3z"/>
	<path class="st2" d="M1192.2,9.3c0.3-0.2,0.7-0.2,1,0L1298.3,70c0.3,0.2,0.5,0.5,0.5,0.9v121.3c0,0.4-0.2,0.7-0.5,0.9l-105.1,60.7
		c-0.3,0.2-0.7,0.2-1,0L1087.1,193c-0.3-0.2-0.5-0.5-0.5-0.9V70.8c0-0.4,0.2-0.7,0.5-0.9L1192.2,9.3z"/>
	<path class="st2" d="M1308.2,213.3c0.3-0.2,0.7-0.2,1,0l105.1,60.7c0.3,0.2,0.5,0.5,0.5,0.9v121.3c0,0.4-0.2,0.7-0.5,0.9
		l-105.1,60.7c-0.3,0.2-0.7,0.2-1,0L1203.1,397c-0.3-0.2-0.5-0.5-0.5-0.9V274.8c0-0.4,0.2-0.7,0.5-0.9L1308.2,213.3z"/>
	<path class="st2" d="M1192.2,417.3c0.3-0.2,0.7-0.2,1,0l105.1,60.7c0.3,0.2,0.5,0.5,0.5,0.9v121.3c0,0.4-0.2,0.7-0.5,0.9
		l-105.1,60.7c-0.3,0.2-0.7,0.2-1,0L1087.1,601c-0.3-0.2-0.5-0.5-0.5-0.9V478.8c0-0.4,0.2-0.7,0.5-0.9L1192.2,417.3z"/>
	<path class="st2" d="M727,9.3c0.3-0.2,0.7-0.2,1,0L833.1,70c0.3,0.2,0.5,0.5,0.5,0.9v121.3c0,0.4-0.2,0.7-0.5,0.9L728,253.7
		c-0.3,0.2-0.7,0.2-1,0L621.9,193c-0.3-0.2-0.5-0.5-0.5-0.9V70.8c0-0.4,0.2-0.7,0.5-0.9L727,9.3z"/>
	<path class="st2" d="M843,213.3c0.3-0.2,0.7-0.2,1,0L949.1,274c0.3,0.2,0.5,0.5,0.5,0.9v121.3c0,0.4-0.2,0.7-0.5,0.9L844,457.7
		c-0.3,0.2-0.7,0.2-1,0L737.9,397c-0.3-0.2-0.5-0.5-0.5-0.9V274.8c0-0.4,0.2-0.7,0.5-0.9L843,213.3z"/>
	<path class="st2" d="M727,417.3c0.3-0.2,0.7-0.2,1,0L833.1,478c0.3,0.2,0.5,0.5,0.5,0.9v121.3c0,0.4-0.2,0.7-0.5,0.9L728,661.7
		c-0.3,0.2-0.7,0.2-1,0L621.9,601c-0.3-0.2-0.5-0.5-0.5-0.9V478.8c0-0.4,0.2-0.7,0.5-0.9L727,417.3z"/>
	<path class="st2" d="M1657,9.3c0.3-0.2,0.7-0.2,1,0L1763.1,70c0.3,0.2,0.5,0.5,0.5,0.9v121.3c0,0.4-0.2,0.7-0.5,0.9L1658,253.7
		c-0.3,0.2-0.7,0.2-1,0L1551.9,193c-0.3-0.2-0.5-0.5-0.5-0.9V70.8c0-0.4,0.2-0.7,0.5-0.9L1657,9.3z"/>
	<path class="st2" d="M1773,213.3c0.3-0.2,0.7-0.2,1,0l105.1,60.7c0.3,0.2,0.5,0.5,0.5,0.9v121.3c0,0.4-0.2,0.7-0.5,0.9L1774,457.7
		c-0.3,0.2-0.7,0.2-1,0L1667.9,397c-0.3-0.2-0.5-0.5-0.5-0.9V274.8c0-0.4,0.2-0.7,0.5-0.9L1773,213.3z"/>
	<path class="st2" d="M1657,417.3c0.3-0.2,0.7-0.2,1,0l105.1,60.7c0.3,0.2,0.5,0.5,0.5,0.9v121.3c0,0.4-0.2,0.7-0.5,0.9L1658,661.7
		c-0.3,0.2-0.7,0.2-1,0L1551.9,601c-0.3-0.2-0.5-0.5-0.5-0.9V478.8c0-0.4,0.2-0.7,0.5-0.9L1657,417.3z"/>
	<path class="st1" d="M146,622.3c0.3-0.2,0.7-0.2,1,0L252.1,683c0.3,0.2,0.5,0.5,0.5,0.9v121.3c0,0.4-0.2,0.7-0.5,0.9L147,866.7
		c-0.3,0.2-0.7,0.2-1,0L40.9,806c-0.3-0.2-0.5-0.5-0.5-0.9V683.8c0-0.4,0.2-0.7,0.5-0.9L146,622.3z"/>
	<path class="st1" d="M1076,622.3c0.3-0.2,0.7-0.2,1,0l105.1,60.7c0.3,0.2,0.5,0.5,0.5,0.9v121.3c0,0.4-0.2,0.7-0.5,0.9L1077,866.7
		c-0.3,0.2-0.7,0.2-1,0L970.9,806c-0.3-0.2-0.5-0.5-0.5-0.9V683.8c0-0.4,0.2-0.7,0.5-0.9L1076,622.3z"/>
	<path class="st1" d="M960,826.3c0.3-0.2,0.7-0.2,1,0l105.1,60.7c0.3,0.2,0.5,0.5,0.5,0.9v121.3c0,0.4-0.2,0.7-0.5,0.9L961,1070.7
		c-0.3,0.2-0.7,0.2-1,0L854.9,1010c-0.3-0.2-0.5-0.5-0.5-0.9V887.8c0-0.4,0.2-0.7,0.5-0.9L960,826.3z"/>
	<path class="st1" d="M610.4,622.3c0.3-0.2,0.7-0.2,1,0L716.4,683c0.3,0.2,0.5,0.5,0.5,0.9v121.3c0,0.4-0.2,0.7-0.5,0.9l-105.1,60.7
		c-0.3,0.2-0.7,0.2-1,0L505.3,806c-0.3-0.2-0.5-0.5-0.5-0.9V683.8c0-0.4,0.2-0.7,0.5-0.9L610.4,622.3z"/>
	<path class="st1" d="M494.4,826.3c0.3-0.2,0.7-0.2,1,0L600.4,887c0.3,0.2,0.5,0.5,0.5,0.9v121.3c0,0.4-0.2,0.7-0.5,0.9l-105.1,60.7
		c-0.3,0.2-0.7,0.2-1,0L389.3,1010c-0.3-0.2-0.5-0.5-0.5-0.9V887.8c0-0.4,0.2-0.7,0.5-0.9L494.4,826.3z"/>
	<path class="st1" d="M1540.3,622.3c0.3-0.2,0.7-0.2,1,0l105.1,60.7c0.3,0.2,0.5,0.5,0.5,0.9v121.3c0,0.4-0.2,0.7-0.5,0.9
		l-105.1,60.7c-0.3,0.2-0.7,0.2-1,0L1435.3,806c-0.3-0.2-0.5-0.5-0.5-0.9V683.8c0-0.4,0.2-0.7,0.5-0.9L1540.3,622.3z"/>
	<path class="st1" d="M1424.3,826.3c0.3-0.2,0.7-0.2,1,0l105.1,60.7c0.3,0.2,0.5,0.5,0.5,0.9v121.3c0,0.4-0.2,0.7-0.5,0.9
		l-105.1,60.7c-0.3,0.2-0.7,0.2-1,0l-105.1-60.7c-0.3-0.2-0.5-0.5-0.5-0.9V887.8c0-0.4,0.2-0.7,0.5-0.9L1424.3,826.3z"/>
	<path class="st2" d="M378.2,622.3c0.3-0.2,0.7-0.2,1,0L484.3,683c0.3,0.2,0.5,0.5,0.5,0.9v121.3c0,0.4-0.2,0.7-0.5,0.9l-105.1,60.7
		c-0.3,0.2-0.7,0.2-1,0L273.1,806c-0.3-0.2-0.5-0.5-0.5-0.9V683.8c0-0.4,0.2-0.7,0.5-0.9L378.2,622.3z"/>
	<path class="st2" d="M262.2,826.3c0.3-0.2,0.7-0.2,1,0L368.3,887c0.3,0.2,0.5,0.5,0.5,0.9v121.3c0,0.4-0.2,0.7-0.5,0.9l-105.1,60.7
		c-0.3,0.2-0.7,0.2-1,0L157.1,1010c-0.3-0.2-0.5-0.5-0.5-0.9V887.8c0-0.4,0.2-0.7,0.5-0.9L262.2,826.3z"/>
	<path class="st2" d="M1308.2,622.3c0.3-0.2,0.7-0.2,1,0l105.1,60.7c0.3,0.2,0.5,0.5,0.5,0.9v121.3c0,0.4-0.2,0.7-0.5,0.9
		l-105.1,60.7c-0.3,0.2-0.7,0.2-1,0L1203.1,806c-0.3-0.2-0.5-0.5-0.5-0.9V683.8c0-0.4,0.2-0.7,0.5-0.9L1308.2,622.3z"/>
	<path class="st2" d="M1192.2,826.3c0.3-0.2,0.7-0.2,1,0l105.1,60.7c0.3,0.2,0.5,0.5,0.5,0.9v121.3c0,0.4-0.2,0.7-0.5,0.9
		l-105.1,60.7c-0.3,0.2-0.7,0.2-1,0l-105.1-60.7c-0.3-0.2-0.5-0.5-0.5-0.9V887.8c0-0.4,0.2-0.7,0.5-0.9L1192.2,826.3z"/>
	<path class="st2" d="M843,622.3c0.3-0.2,0.7-0.2,1,0L949.1,683c0.3,0.2,0.5,0.5,0.5,0.9v121.3c0,0.4-0.2,0.7-0.5,0.9L844,866.7
		c-0.3,0.2-0.7,0.2-1,0L737.9,806c-0.3-0.2-0.5-0.5-0.5-0.9V683.8c0-0.4,0.2-0.7,0.5-0.9L843,622.3z"/>
	<path class="st2" d="M727,826.3c0.3-0.2,0.7-0.2,1,0L833.1,887c0.3,0.2,0.5,0.5,0.5,0.9v121.3c0,0.4-0.2,0.7-0.5,0.9L728,1070.7
		c-0.3,0.2-0.7,0.2-1,0L621.9,1010c-0.3-0.2-0.5-0.5-0.5-0.9V887.8c0-0.4,0.2-0.7,0.5-0.9L727,826.3z"/>
	<path class="st2" d="M1773,622.3c0.3-0.2,0.7-0.2,1,0l105.1,60.7c0.3,0.2,0.5,0.5,0.5,0.9v121.3c0,0.4-0.2,0.7-0.5,0.9L1774,866.7
		c-0.3,0.2-0.7,0.2-1,0L1667.9,806c-0.3-0.2-0.5-0.5-0.5-0.9V683.8c0-0.4,0.2-0.7,0.5-0.9L1773,622.3z"/>
	<path class="st2" d="M1657,826.3c0.3-0.2,0.7-0.2,1,0l105.1,60.7c0.3,0.2,0.5,0.5,0.5,0.9v121.3c0,0.4-0.2,0.7-0.5,0.9l-105.1,60.7
		c-0.3,0.2-0.7,0.2-1,0l-105.1-60.7c-0.3-0.2-0.5-0.5-0.5-0.9V887.8c0-0.4,0.2-0.7,0.5-0.9L1657,826.3z"/>
</g>
</svg>
