<svg width="416" height="581" viewBox="0 0 416 581" fill="none" xmlns="http://www.w3.org/2000/svg">
<rect width="416" height="581" fill="white"/>
<path d="M221 75.2887C221.309 75.11 221.691 75.11 222 75.2887L327.088 135.961C327.398 136.14 327.588 136.47 327.588 136.827V258.173C327.588 258.53 327.398 258.86 327.088 259.039L222 319.711C221.691 319.89 221.309 319.89 221 319.711L115.912 259.039C115.602 258.86 115.412 258.53 115.412 258.173V136.827C115.412 136.47 115.602 136.14 115.912 135.961L221 75.2887Z" stroke="black" stroke-width="15"/>
<path d="M193 124.289C193.309 124.11 193.691 124.11 194 124.289L299.088 184.961C299.398 185.14 299.588 185.47 299.588 185.827V307.173C299.588 307.53 299.398 307.86 299.088 308.039L194 368.711C193.691 368.89 193.309 368.89 193 368.711L87.9119 308.039C87.6025 307.86 87.4119 307.53 87.4119 307.173V185.827C87.4119 185.47 87.6025 185.14 87.9119 184.961L193 124.289Z" stroke="#FF9900" stroke-width="15"/>
<path d="M163.375 458H152.5C152.25 458 152.125 457.844 152.125 457.531L152.312 391.578C152.312 391.328 152.438 391.203 152.688 391.203H164.406C164.656 391.203 164.875 391.328 165.062 391.578L173.828 404.234L182.547 391.578C182.734 391.328 182.969 391.203 183.25 391.203H195.016C195.297 391.203 195.438 391.328 195.438 391.578L195.625 457.531C195.625 457.844 195.5 458 195.25 458H184.375C184.125 458 184 457.844 184 457.531L183.906 408.547L173.828 423.172L163.844 408.547L163.75 457.531C163.75 457.844 163.625 458 163.375 458Z" fill="black"/>
<path d="M215.031 458H204.156C203.844 458 203.688 457.844 203.688 457.531L203.781 391.578C203.781 391.328 203.906 391.203 204.156 391.203H214.938C215.188 391.203 215.312 391.328 215.312 391.578L215.406 457.531C215.406 457.844 215.281 458 215.031 458Z" fill="black"/>
<path d="M234.297 458H224.688C224.188 458 223.938 457.781 223.938 457.344L223.844 391.953C223.844 391.453 224.094 391.203 224.594 391.203H233.266L249.484 429.031L249.016 391.953C249.016 391.453 249.297 391.203 249.859 391.203H259.375C259.75 391.203 259.938 391.453 259.938 391.953L260.031 457.438C260.031 457.812 259.875 458 259.562 458H251.125L234.484 422.656L235.188 457.25C235.188 457.75 234.891 458 234.297 458Z" fill="black"/>
<path d="M286.047 457.906L268.844 458C268.531 458 268.375 457.844 268.375 457.531L268.562 391.578C268.562 391.328 268.688 391.203 268.938 391.203L286.891 391.109C290.453 391.016 293.672 391.828 296.547 393.547C299.453 395.266 301.766 397.594 303.484 400.531C305.234 403.438 306.109 406.656 306.109 410.188V437.75C306.109 441.438 305.219 444.812 303.438 447.875C301.625 450.906 299.219 453.328 296.219 455.141C293.219 456.922 289.828 457.844 286.047 457.906ZM286.891 402.594L280.188 402.688L280.094 446.188H286.047C288.422 446.188 290.422 445.359 292.047 443.703C293.672 442.047 294.484 440.062 294.484 437.75V410.094C294.484 408.062 293.734 406.297 292.234 404.797C290.734 403.266 288.953 402.531 286.891 402.594Z" fill="black"/>
<path d="M329.969 458.938C326.562 458.938 323.422 458.062 320.547 456.312C317.703 454.562 315.422 452.234 313.703 449.328C312.016 446.391 311.172 443.172 311.172 439.672V435.266C311.172 434.922 311.328 434.75 311.641 434.75H322.422C322.672 434.75 322.797 434.922 322.797 435.266V439.672C322.797 441.766 323.5 443.578 324.906 445.109C326.312 446.609 328 447.359 329.969 447.359C331.969 447.359 333.672 446.594 335.078 445.062C336.484 443.5 337.188 441.703 337.188 439.672C337.188 437.328 335.656 435.281 332.594 433.531C332.094 433.219 331.438 432.844 330.625 432.406C329.844 431.938 328.906 431.406 327.812 430.812C326.719 430.219 325.656 429.641 324.625 429.078C323.594 428.484 322.594 427.922 321.625 427.391C318.125 425.328 315.516 422.75 313.797 419.656C312.109 416.531 311.266 413.031 311.266 409.156C311.266 405.594 312.141 402.375 313.891 399.5C315.641 396.656 317.922 394.406 320.734 392.75C323.578 391.062 326.656 390.219 329.969 390.219C333.375 390.219 336.5 391.062 339.344 392.75C342.188 394.469 344.453 396.75 346.141 399.594C347.859 402.438 348.719 405.625 348.719 409.156V417.031C348.719 417.281 348.594 417.406 348.344 417.406H337.562C337.312 417.406 337.188 417.281 337.188 417.031L337.094 409.156C337.094 406.906 336.391 405.078 334.984 403.672C333.578 402.266 331.906 401.562 329.969 401.562C328 401.562 326.312 402.312 324.906 403.812C323.5 405.312 322.797 407.094 322.797 409.156C322.797 411.25 323.234 413 324.109 414.406C325.016 415.812 326.656 417.156 329.031 418.438C329.281 418.562 329.859 418.875 330.766 419.375C331.672 419.875 332.672 420.438 333.766 421.062C334.891 421.656 335.906 422.203 336.812 422.703C337.719 423.172 338.266 423.453 338.453 423.547C341.641 425.328 344.156 427.516 346 430.109C347.875 432.703 348.812 435.891 348.812 439.672C348.812 443.328 347.969 446.609 346.281 449.516C344.562 452.422 342.281 454.719 339.438 456.406C336.594 458.094 333.438 458.938 329.969 458.938Z" fill="black"/>
<path d="M78.2475 514H67.3749C67.125 514 67 513.843 67 513.53L67.0937 447.376C67.0937 447.125 67.2499 447 67.5624 447H78.2475C78.5599 447 78.7161 447.125 78.7161 447.376L78.6224 473.565H86.7514V485.225L93.0098 473.565V447.376C93.0098 447.125 93.1347 447 93.3847 447H104.07C104.382 447 104.538 447.125 104.538 447.376L104.726 513.53C104.726 513.843 104.57 514 104.257 514H93.4784C93.166 514 93.0098 513.843 93.0098 513.53V485.225V473.565L86.7514 485.225H78.6224V513.53C78.6224 513.843 78.4974 514 78.2475 514Z" fill="#FF9900"/>
<path d="M123.893 514H113.021C112.708 514 112.552 513.843 112.552 513.53L112.646 447.376C112.646 447.125 112.771 447 113.021 447H123.8C124.05 447 124.175 447.125 124.175 447.376L124.268 513.53C124.268 513.843 124.143 514 123.893 514Z" fill="#FF9900"/>
<path d="M155.105 514H143.483C143.202 514 143.045 513.843 143.014 513.53L129.752 447.376C129.689 447.125 129.814 447 130.126 447H140.999C141.249 447 141.405 447.125 141.468 447.376L149.341 491.479L157.027 447.376C157.089 447.125 157.245 447 157.495 447H168.227C168.571 447 168.696 447.125 168.602 447.376L155.574 513.53C155.543 513.843 155.386 514 155.105 514Z" fill="#FF9900"/>
<path d="M205.625 514H174.601C174.351 514 174.226 513.843 174.226 513.53L174.32 447.376C174.32 447.125 174.445 447 174.695 447H205.531C205.781 447 205.906 447.157 205.906 447.47V458.237C205.906 458.488 205.781 458.613 205.531 458.613H185.848V473.659H205.531C205.781 473.659 205.906 473.784 205.906 474.035L206 484.943C206 485.194 205.875 485.319 205.625 485.319H185.848V502.152H205.625C205.875 502.152 206 502.308 206 502.622V513.624C206 513.875 205.875 514 205.625 514Z" fill="#FF9900"/>
</svg>
