<?xml version="1.0" encoding="utf-8"?>
<!-- Generator: Adobe Illustrator 23.0.1, SVG Export Plug-In . SVG Version: 6.00 Build 0)  -->
<svg version="1.1" id="Layer_1" xmlns="http://www.w3.org/2000/svg" xmlns:xlink="http://www.w3.org/1999/xlink" x="0px" y="0px"
	 viewBox="0 0 400 400" style="enable-background:new 0 0 400 400;" xml:space="preserve">
<style type="text/css">
	.st0{fill:none;stroke:#FFFFFF;stroke-width:19.2039;}
	.st1{fill:none;stroke:#FF9900;stroke-width:19.2039;}
</style>
<path class="st0" d="M217.8,12.2c0.4-0.2,0.9-0.2,1.3,0l134.5,77.7c0.4,0.2,0.6,0.7,0.6,1.1v155.4c0,0.5-0.2,0.9-0.6,1.1
	l-134.5,77.7c-0.4,0.2-0.9,0.2-1.3,0L83.2,247.4c-0.4-0.2-0.6-0.6-0.6-1.1V91c0-0.5,0.2-0.9,0.6-1.1L217.8,12.2z"/>
<path class="st1" d="M181.9,74.9c0.4-0.2,0.9-0.2,1.3,0l134.5,77.7c0.4,0.2,0.6,0.6,0.6,1.1V309c0,0.5-0.2,0.9-0.6,1.1l-134.5,77.7
	c-0.4,0.2-0.9,0.2-1.3,0L47.4,310.1c-0.4-0.2-0.6-0.6-0.6-1.1V153.7c0-0.5,0.2-0.9,0.6-1.1L181.9,74.9z"/>
</svg>
