<?xml version="1.0" encoding="utf-8"?>
<!-- Generator: Adobe Illustrator 23.0.1, SVG Export Plug-In . SVG Version: 6.00 Build 0)  -->
<svg version="1.1" id="Layer_1" xmlns="http://www.w3.org/2000/svg" xmlns:xlink="http://www.w3.org/1999/xlink" x="0px" y="0px"
	 viewBox="0 0 1200 430" style="enable-background:new 0 0 1200 430;" xml:space="preserve">
<style type="text/css">
	.st0{fill:none;stroke:#000000;stroke-width:15;}
	.st1{fill:none;stroke:#FF9900;stroke-width:15;}
	.st2{fill:#FF9900;}
</style>
<path class="st0" d="M1071,14.1c0.3-0.2,0.7-0.2,1,0l105.1,60.7c0.3,0.2,0.5,0.5,0.5,0.9V197c0,0.4-0.2,0.7-0.5,0.9L1072,258.6
	c-0.3,0.2-0.7,0.2-1,0l-105.1-60.7c-0.3-0.2-0.5-0.5-0.5-0.9V75.7c0-0.4,0.2-0.7,0.5-0.9L1071,14.1z"/>
<path class="st1" d="M1043,63.1c0.3-0.2,0.7-0.2,1,0l105.1,60.7c0.3,0.2,0.5,0.5,0.5,0.9V246c0,0.4-0.2,0.7-0.5,0.9L1044,307.6
	c-0.3,0.2-0.7,0.2-1,0l-105.1-60.7c-0.3-0.2-0.5-0.5-0.5-0.9V124.7c0-0.4,0.2-0.7,0.5-0.9L1043,63.1z"/>
<path d="M476.3,423.8h-31.7c-0.7,0-1.1-0.5-1.1-1.4l0.5-192.4c0-0.7,0.4-1.1,1.1-1.1h34.2c0.7,0,1.4,0.4,1.9,1.1l25.6,36.9
	l25.4-36.9c0.5-0.7,1.2-1.1,2-1.1h34.3c0.8,0,1.2,0.4,1.2,1.1l0.5,192.4c0,0.9-0.4,1.4-1.1,1.4h-31.7c-0.7,0-1.1-0.5-1.1-1.4
	l-0.3-142.9l-29.4,42.7l-29.1-42.7l-0.3,142.9C477.4,423.4,477.1,423.8,476.3,423.8z"/>
<path d="M627,423.8h-31.7c-0.9,0-1.4-0.5-1.4-1.4l0.3-192.4c0-0.7,0.4-1.1,1.1-1.1h31.4c0.7,0,1.1,0.4,1.1,1.1l0.3,192.4
	C628.1,423.4,627.7,423.8,627,423.8z"/>
<path d="M683.2,423.8h-28c-1.5,0-2.2-0.6-2.2-1.9l-0.3-190.7c0-1.5,0.7-2.2,2.2-2.2h25.3l47.3,110.3l-1.4-108.1
	c0-1.5,0.8-2.2,2.5-2.2h27.8c1.1,0,1.6,0.7,1.6,2.2l0.3,191c0,1.1-0.5,1.6-1.4,1.6h-24.6l-48.5-103.1l2.1,100.9
	C685.8,423.1,684.9,423.8,683.2,423.8z"/>
<path d="M834.1,423.6l-50.2,0.3c-0.9,0-1.4-0.5-1.4-1.4l0.5-192.4c0-0.7,0.4-1.1,1.1-1.1l52.4-0.3c10.4-0.3,19.8,2.1,28.2,7.1
	c8.5,5,15.2,11.8,20.2,20.4c5.1,8.5,7.7,17.9,7.7,28.2v80.4c0,10.8-2.6,20.6-7.8,29.5c-5.3,8.8-12.3,15.9-21.1,21.2
	C855.1,420.7,845.2,423.4,834.1,423.6z M836.6,262.2l-19.6,0.3l-0.3,126.9h17.4c6.9,0,12.8-2.4,17.5-7.2c4.7-4.8,7.1-10.6,7.1-17.4
	v-80.7c0-5.9-2.2-11.1-6.6-15.4C847.8,264.2,842.6,262.1,836.6,262.2z"/>
<path d="M962.2,426.6c-9.9,0-19.1-2.6-27.5-7.7c-8.3-5.1-15-11.9-20-20.4c-4.9-8.6-7.4-18-7.4-28.2v-12.9c0-1,0.5-1.5,1.4-1.5h31.4
	c0.7,0,1.1,0.5,1.1,1.5v12.9c0,6.1,2.1,11.4,6.2,15.9c4.1,4.4,9,6.6,14.8,6.6c5.8,0,10.8-2.2,14.9-6.7c4.1-4.6,6.2-9.8,6.2-15.7
	c0-6.8-4.5-12.8-13.4-17.9c-1.5-0.9-3.4-2-5.7-3.3c-2.3-1.4-5-2.9-8.2-4.6c-3.2-1.7-6.3-3.4-9.3-5.1c-3-1.7-5.9-3.4-8.8-4.9
	c-10.2-6-17.8-13.5-22.8-22.6c-4.9-9.1-7.4-19.3-7.4-30.6c0-10.4,2.5-19.8,7.7-28.2c5.1-8.3,11.8-14.9,20-19.7
	c8.3-4.9,17.3-7.4,26.9-7.4c9.9,0,19.1,2.5,27.3,7.4c8.3,5,14.9,11.7,19.8,20c5,8.3,7.5,17.6,7.5,27.9v23c0,0.7-0.4,1.1-1.1,1.1
	h-31.4c-0.7,0-1.1-0.4-1.1-1.1l-0.3-23c0-6.6-2.1-11.9-6.2-16c-4.1-4.1-9-6.2-14.6-6.2c-5.7,0-10.7,2.2-14.8,6.6s-6.2,9.6-6.2,15.6
	c0,6.1,1.3,11.2,3.8,15.3c2.7,4.1,7.4,8,14.4,11.8c0.7,0.4,2.4,1.3,5.1,2.7c2.6,1.5,5.6,3.1,8.8,4.9c3.3,1.7,6.2,3.3,8.9,4.8
	c2.7,1.4,4.2,2.2,4.8,2.5c9.3,5.2,16.6,11.6,22,19.1c5.5,7.6,8.2,16.9,8.2,27.9c0,10.7-2.5,20.2-7.4,28.7c-5,8.5-11.7,15.2-20,20.1
	S972.4,426.6,962.2,426.6z"/>
<path class="st2" d="M90.8,229.9c0-0.7,0.4-1.1,1.1-1.1H123c0.9,0,1.4,0.4,1.4,1.1l0.5,192.5c0,0.9-0.4,1.4-1.4,1.4H92.2
	c-0.9,0-1.4-0.4-1.4-1.4v-82.4v-33.9V229.9z"/>
<path class="st2" d="M48.9,422.5v-82.4h23.7v-33.9H48.9l0.3-76.2c0-0.7-0.5-1.1-1.4-1.1H16.6c-0.9,0-1.4,0.4-1.4,1.1L15,422.5
	c0,0.9,0.4,1.4,1.1,1.4h31.7C48.5,423.8,48.9,423.4,48.9,422.5z"/>
<path class="st2" d="M180.8,423.8h-31.7c-0.9,0-1.4-0.5-1.4-1.4l0.3-192.5c0-0.7,0.4-1.1,1.1-1.1h31.4c0.7,0,1.1,0.4,1.1,1.1
	l0.3,192.5C181.9,423.4,181.5,423.8,180.8,423.8z"/>
<path class="st2" d="M271.7,423.8h-33.9c-0.8,0-1.3-0.5-1.4-1.4l-38.6-192.5c-0.2-0.7,0.2-1.1,1.1-1.1h31.7c0.7,0,1.2,0.4,1.4,1.1
	l22.9,128.4l22.4-128.4c0.2-0.7,0.6-1.1,1.4-1.1h31.3c1,0,1.4,0.4,1.1,1.1l-38,192.5C273,423.4,272.5,423.8,271.7,423.8z"/>
<path class="st2" d="M418.9,423.8h-90.4c-0.7,0-1.1-0.5-1.1-1.4l0.3-192.5c0-0.7,0.4-1.1,1.1-1.1h89.8c0.7,0,1.1,0.5,1.1,1.4v31.3
	c0,0.7-0.4,1.1-1.1,1.1h-57.4v43.8h57.4c0.7,0,1.1,0.4,1.1,1.1l0.3,31.7c0,0.7-0.4,1.1-1.1,1.1h-57.6v49h57.6c0.7,0,1.1,0.5,1.1,1.4
	v32C420,423.5,419.6,423.8,418.9,423.8z"/>
</svg>
