<?xml version="1.0" encoding="utf-8"?>
<!-- Generator: Adobe Illustrator 23.0.1, SVG Export Plug-In . SVG Version: 6.00 Build 0)  -->
<svg version="1.1" id="Layer_1" xmlns="http://www.w3.org/2000/svg" xmlns:xlink="http://www.w3.org/1999/xlink" x="0px" y="0px"
	 viewBox="0 0 400 400" style="enable-background:new 0 0 400 400;" xml:space="preserve">
<style type="text/css">
	.st0{fill:none;stroke:#000000;stroke-width:19.2039;}
	.st1{fill:none;stroke:#FF9900;stroke-width:19.2039;}
</style>
<path class="st0" d="M217.78,12.17c0.4-0.23,0.88-0.23,1.28,0L353.6,89.85c0.4,0.23,0.64,0.65,0.64,1.11v155.35
	c0,0.46-0.24,0.88-0.64,1.11L219.06,325.1c-0.4,0.23-0.88,0.23-1.28,0L83.24,247.42c-0.4-0.23-0.64-0.65-0.64-1.11V90.96
	c0-0.46,0.24-0.88,0.64-1.11L217.78,12.17z"/>
<path class="st1" d="M181.94,74.9c0.4-0.23,0.88-0.23,1.28,0l134.54,77.68c0.4,0.23,0.64,0.65,0.64,1.11v155.35
	c0,0.46-0.24,0.88-0.64,1.11l-134.54,77.68c-0.4,0.23-0.88,0.23-1.28,0L47.4,310.15c-0.4-0.23-0.64-0.65-0.64-1.11V153.69
	c0-0.46,0.24-0.88,0.64-1.11L181.94,74.9z"/>
</svg>
