<svg viewBox="0 0 1390 638" fill="none" xmlns="http://www.w3.org/2000/svg">
<path d="M1166 118.134C1166.31 117.955 1166.69 117.955 1167 118.134L1272.09 178.807C1272.4 178.985 1272.59 179.315 1272.59 179.673V301.018C1272.59 301.375 1272.4 301.705 1272.09 301.884L1167 362.557C1166.69 362.735 1166.31 362.735 1166 362.557L1060.91 301.884C1060.6 301.705 1060.41 301.375 1060.41 301.018V179.673C1060.41 179.315 1060.6 178.985 1060.91 178.807L1166 118.134Z" stroke="black" stroke-width="15"/>
<path d="M1138 167.134C1138.31 166.955 1138.69 166.955 1139 167.134L1244.09 227.807C1244.4 227.985 1244.59 228.315 1244.59 228.673V350.018C1244.59 350.375 1244.4 350.705 1244.09 350.884L1139 411.557C1138.69 411.735 1138.31 411.735 1138 411.557L1032.91 350.884C1032.6 350.705 1032.41 350.375 1032.41 350.018V228.673C1032.41 228.315 1032.6 227.985 1032.91 227.807L1138 167.134Z" stroke="#FF9900" stroke-width="15"/>
<path d="M571.344 527.845H539.625C538.896 527.845 538.531 527.389 538.531 526.478L539.078 334.115C539.078 333.386 539.443 333.021 540.172 333.021H574.352C575.081 333.021 575.719 333.386 576.266 334.115L601.832 371.029L627.262 334.115C627.809 333.386 628.492 333.021 629.312 333.021H663.629C664.449 333.021 664.859 333.386 664.859 334.115L665.406 526.478C665.406 527.389 665.042 527.845 664.312 527.845H632.594C631.865 527.845 631.5 527.389 631.5 526.478L631.227 383.607L601.832 426.263L572.711 383.607L572.438 526.478C572.438 527.389 572.073 527.845 571.344 527.845Z" fill="black"/>
<path d="M722.008 527.845H690.289C689.378 527.845 688.922 527.389 688.922 526.478L689.195 334.115C689.195 333.386 689.56 333.021 690.289 333.021H721.734C722.464 333.021 722.828 333.386 722.828 334.115L723.102 526.478C723.102 527.389 722.737 527.845 722.008 527.845Z" fill="black"/>
<path d="M778.199 527.845H750.172C748.714 527.845 747.984 527.207 747.984 525.931L747.711 335.208C747.711 333.75 748.44 333.021 749.898 333.021H775.191L822.496 443.353L821.129 335.208C821.129 333.75 821.949 333.021 823.59 333.021H851.344C852.438 333.021 852.984 333.75 852.984 335.208L853.258 526.205C853.258 527.298 852.802 527.845 851.891 527.845H827.281L778.746 424.759L780.797 525.658C780.797 527.116 779.931 527.845 778.199 527.845Z" fill="black"/>
<path d="M929.137 527.572L878.961 527.845C878.049 527.845 877.594 527.389 877.594 526.478L878.141 334.115C878.141 333.386 878.505 333.021 879.234 333.021L931.598 332.748C941.988 332.474 951.376 334.844 959.762 339.857C968.238 344.87 974.983 351.66 979.996 360.228C985.1 368.705 987.652 378.093 987.652 388.392V468.783C987.652 479.538 985.055 489.382 979.859 498.314C974.573 507.155 967.555 514.219 958.805 519.505C950.055 524.701 940.165 527.389 929.137 527.572ZM931.598 366.244L912.047 366.517L911.773 493.392H929.137C936.064 493.392 941.897 490.977 946.637 486.146C951.376 481.315 953.746 475.528 953.746 468.783V388.119C953.746 382.194 951.559 377.044 947.184 372.669C942.809 368.203 937.613 366.061 931.598 366.244Z" fill="black"/>
<path d="M1057.24 530.58C1047.31 530.58 1038.15 528.028 1029.76 522.923C1021.47 517.819 1014.81 511.029 1009.8 502.552C1004.88 493.985 1002.42 484.597 1002.42 474.388V461.537C1002.42 460.534 1002.87 460.033 1003.79 460.033H1035.23C1035.96 460.033 1036.32 460.534 1036.32 461.537V474.388C1036.32 480.495 1038.38 485.781 1042.48 490.248C1046.58 494.623 1051.5 496.81 1057.24 496.81C1063.08 496.81 1068.04 494.577 1072.14 490.111C1076.25 485.554 1078.3 480.313 1078.3 474.388C1078.3 467.552 1073.83 461.582 1064.9 456.478C1063.44 455.567 1061.53 454.473 1059.16 453.197C1056.88 451.83 1054.14 450.28 1050.95 448.548C1047.76 446.817 1044.66 445.13 1041.66 443.49C1038.65 441.758 1035.73 440.117 1032.91 438.568C1022.7 432.552 1015.09 425.033 1010.07 416.009C1005.15 406.895 1002.69 396.686 1002.69 385.384C1002.69 374.994 1005.24 365.606 1010.35 357.22C1015.45 348.926 1022.11 342.363 1030.31 337.533C1038.6 332.611 1047.58 330.15 1057.24 330.15C1067.18 330.15 1076.29 332.611 1084.59 337.533C1092.88 342.546 1099.49 349.199 1104.41 357.494C1109.42 365.788 1111.93 375.085 1111.93 385.384V408.353C1111.93 409.082 1111.57 409.447 1110.84 409.447H1079.39C1078.66 409.447 1078.3 409.082 1078.3 408.353L1078.02 385.384C1078.02 378.822 1075.97 373.49 1071.87 369.388C1067.77 365.287 1062.89 363.236 1057.24 363.236C1051.5 363.236 1046.58 365.423 1042.48 369.798C1038.38 374.173 1036.32 379.369 1036.32 385.384C1036.32 391.491 1037.6 396.595 1040.15 400.697C1042.8 404.798 1047.58 408.718 1054.51 412.455C1055.24 412.819 1056.92 413.731 1059.57 415.189C1062.21 416.647 1065.13 418.288 1068.32 420.111C1071.6 421.843 1074.56 423.438 1077.2 424.896C1079.85 426.263 1081.44 427.083 1081.99 427.357C1091.29 432.552 1098.62 438.932 1104 446.498C1109.47 454.063 1112.2 463.36 1112.2 474.388C1112.2 485.052 1109.74 494.623 1104.82 503.099C1099.81 511.576 1093.15 518.275 1084.86 523.197C1076.57 528.119 1067.36 530.58 1057.24 530.58Z" fill="black"/>
<path d="M142.771 527.845H111.092C110.364 527.845 110 527.389 110 526.477L110.273 333.94C110.273 333.21 110.728 332.845 111.639 332.845H142.771C143.682 332.845 144.137 333.21 144.137 333.94L143.864 410.161H167.549V444.098L185.784 410.161V333.94C185.784 333.21 186.148 332.845 186.876 332.845H218.009C218.919 332.845 219.375 333.21 219.375 333.94L219.921 526.477C219.921 527.389 219.466 527.845 218.555 527.845H187.149C186.239 527.845 185.784 527.389 185.784 526.477V444.098V410.161L167.549 444.098H143.864V526.477C143.864 527.389 143.5 527.845 142.771 527.845Z" fill="#FF9900"/>
<path d="M275.769 527.845H244.09C243.179 527.845 242.724 527.389 242.724 526.477L242.997 333.94C242.997 333.21 243.361 332.845 244.09 332.845H275.496C276.224 332.845 276.588 333.21 276.588 333.94L276.861 526.477C276.861 527.389 276.497 527.845 275.769 527.845Z" fill="#FF9900"/>
<path d="M366.709 527.845H332.846C332.026 527.845 331.571 527.389 331.48 526.477L292.837 333.94C292.655 333.21 293.019 332.845 293.93 332.845H325.609C326.337 332.845 326.792 333.21 326.974 333.94L349.914 462.298L372.308 333.94C372.49 333.21 372.945 332.845 373.673 332.845H404.943C405.944 332.845 406.308 333.21 406.035 333.94L368.075 526.477C367.984 527.389 367.529 527.845 366.709 527.845Z" fill="#FF9900"/>
<path d="M513.908 527.845H423.513C422.785 527.845 422.421 527.389 422.421 526.477L422.694 333.94C422.694 333.21 423.058 332.845 423.786 332.845H513.635C514.363 332.845 514.727 333.301 514.727 334.214V365.55C514.727 366.28 514.363 366.645 513.635 366.645H456.285V410.435H513.635C514.363 410.435 514.727 410.8 514.727 411.529L515 443.277C515 444.007 514.636 444.372 513.908 444.372H456.285V493.361H513.908C514.636 493.361 515 493.817 515 494.729V526.75C515 527.48 514.636 527.845 513.908 527.845Z" fill="#FF9900"/>
</svg>
