<svg width="2344" height="33" viewBox="0 0 2344 33" fill="none" xmlns="http://www.w3.org/2000/svg">
<path fill-rule="evenodd" clip-rule="evenodd" d="M1129.65 26.0961L1136 29.5966L1142.35 26.0961L1209 26.0961L1298 26.0961L1298 22.5954L1209 22.5954L1209 21.9999L1253 21.9999L1253 22.5951L1342 22.5951L1342 21.9999L1433.34 21.9999L1435 22.9135L1436.66 21.9999L1615 21.9999L1615 22.5952L1704 22.5952L1704 21.9999L1821.72 22L1828 25.4594L1834.28 22L1932 22L1932 22.9133L1918 22.9133L1918 26.414L1949 26.414L1949 28.0053L2038 28.0053L2038 24.5047L2007 24.5047L2007 23.5503L2021 23.5503L2021 22L2344 22L2344 0L2.83783e-06 -0.000204919L9.14524e-07 21.9998L174 21.9998L174 22.595L245.732 22.595L263 25.7677L263 26.096L322 26.096L322 28.6417L275 28.6417L275 32.1424L364 32.1424L364 28.6419L411 28.6419L411 26.096L576.453 26.096L588 32.4608L599.547 26.096L937 26.0961L937 28.642L969 28.642L969 32.1425L1058 32.1425L1058 28.6418L1026 28.6418L1026 26.0961L1129.65 26.0961ZM1629 26.0961L1718 26.0961L1718 22.5954L1629 22.5954L1629 26.0961Z" fill="#0ACF83"/>
</svg>
