<svg width="596" height="522" viewBox="0 0 596 522" fill="none" xmlns="http://www.w3.org/2000/svg">
<path d="M277.646 11.5C286.498 -3.83334 308.63 -3.83333 317.483 11.5L459.255 257.056L386.254 290.441C370.863 256.841 336.939 233.5 297.564 233.5C258.491 233.5 224.786 256.485 209.232 289.671L135.499 257.706L277.646 11.5Z" fill="#FE9607"/>
<path d="M203.388 305.666L126.943 272.525L3.11573 487C-5.73697 502.333 5.3289 521.5 23.0343 521.5H290.564V428.253C239.984 424.664 200.064 382.494 200.064 331C200.064 322.237 201.22 313.745 203.388 305.666Z" fill="#FFBB00"/>
<path d="M307.564 427.993V521.5H572.094C589.8 521.5 600.866 502.333 592.013 487L467.793 271.845L391.966 306.522C393.989 314.344 395.064 322.546 395.064 331C395.064 381.472 356.714 422.986 307.564 427.993Z" fill="#FE6E07"/>
<path d="M381 331C381 376.84 343.84 414 298 414C252.16 414 215 376.84 215 331C215 285.16 252.16 248 298 248C343.84 248 381 285.16 381 331Z" fill="white"/>
</svg>
