<svg width="2344" height="33" viewBox="0 0 2344 33" fill="none" xmlns="http://www.w3.org/2000/svg">
<path fill-rule="evenodd" clip-rule="evenodd" d="M1214.35 6.90381L1208 3.40332L1201.65 6.90381H1135H1046V10.4043L1002 10.4048V11H910.657L909 10.0864L907.343 11H729V10.4048L715 10.4043V6.90381H626V10.4043L640 10.4048V11H522.276L516 7.54053L509.724 11H412V10.0864H426V6.58594H395V4.99463H306V8.49512H337V9.44971H323V11H0V33H2344V11H2170V10.4048H2098.27L2081 7.23193V6.90381H2022V4.35791H2069V0.857422H1980V4.35791H1933V6.90381H1767.55L1756 0.539062L1744.45 6.90381H1407V4.35791H1375V0.857422H1286V4.35791H1318V6.90381H1214.35ZM1135 10.4043L1091 10.4048V11H1135V10.4043Z" fill="#0ACF83"/>
</svg>
