<svg width="2061" height="33" viewBox="0 0 2061 33" fill="none" xmlns="http://www.w3.org/2000/svg">
<rect width="2061" height="33" fill="#F5F5F5"/>
<path d="M0 12.9507H2061V33.0001H0V12.9507Z" fill="#0ACF83"/>
<path d="M40 9.44971H129V12.9504H40V9.44971Z" fill="#0ACF83"/>
<path d="M1035 4.35791H1124V7.8586H1035V4.35791Z" fill="#0ACF83"/>
<path d="M1650 4.35791H1739V7.8586H1650V4.35791Z" fill="#0ACF83"/>
<path d="M54 6.58594H143V10.0866H54V6.58594Z" fill="#0ACF83"/>
<path d="M1003 0.857422H1092V4.35811H1003V0.857422Z" fill="#0ACF83"/>
<path d="M311 11.3594H400V14.8601H311V11.3594Z" fill="#0ACF83"/>
<path d="M1697 0.857422H1786V4.35811H1697V0.857422Z" fill="#0ACF83"/>
<path d="M343 6.90381H432V10.4045H343V6.90381Z" fill="#0ACF83"/>
<path d="M23 4.99463H112V8.49532H23V4.99463Z" fill="#0ACF83"/>
<path d="M763 6.90381H852V10.4045H763V6.90381Z" fill="#0ACF83"/>
<path d="M357 10.4048H446V13.9055H357V10.4048Z" fill="#0ACF83"/>
<path d="M719 10.4048H808V13.9055H719V10.4048Z" fill="#0ACF83"/>
<path d="M1798 10.4048H1887V13.9055H1798V10.4048Z" fill="#0ACF83"/>
<path d="M233 7.54053L252.919 18.52H213.081L233 7.54053Z" fill="#0ACF83"/>
<path d="M626 10.0864L645.919 21.0659H606.081L626 10.0864Z" fill="#0ACF83"/>
<path d="M925 3.40332L944.919 14.3828H905.081L925 3.40332Z" fill="#0ACF83"/>
<path d="M1473 0.539062L1492.92 11.5185H1453.08L1473 0.539062Z" fill="#0ACF83"/>
<path d="M852 6.90381H1798V18.0424H852V6.90381Z" fill="#0ACF83"/>
<path d="M1817 10.7231L1797.5 14.306V7.14021L1817 10.7231Z" fill="#0ACF83"/>
<path d="M296 14.2237L311.75 11.7432V16.7042L296 14.2237Z" fill="#0ACF83"/>
</svg>
